<svg width="514" height="449" viewBox="0 0 514 449" fill="none" xmlns="http://www.w3.org/2000/svg">
<path fill-rule="evenodd" clip-rule="evenodd" d="M213.094 0H514V5H213.094H213.094H213.093H213.093H213.093H213.092H213.092H213.092H213.091H213.091H213.09H213.09H213.09H213.089H213.089H213.089H213.088H213.088H213.088H213.087H213.087H213.087H213.086H213.086H213.086H213.085H213.085H213.085H213.084H213.084H213.084H213.083H213.083H213.083H213.082H213.082H213.082H213.081H213.081H213.081H213.08H213.08H213.08H213.079H213.079H213.078H213.078H213.078H213.077H213.077H213.077H213.076H213.076H213.076H213.075H213.075H213.075H213.074H213.074H213.074H213.073H213.073H213.073H213.072H213.072H213.072H213.071H213.071H213.071H213.07H213.07H213.07H213.069H213.069H213.069H213.068H213.068H213.068H213.067H213.067H213.066H213.066H213.066H213.065H213.065H213.065H213.064H213.064H213.064H213.063H213.063H213.063H213.062H213.062H213.062H213.061H213.061H213.061H213.06H213.06H213.06H213.059H213.059H213.059H213.058H213.058H213.058H213.057H213.057H213.057H213.056H213.056H213.056H213.055H213.055H213.054H213.054H213.054H213.053H213.053H213.053H213.052H213.052H213.052H213.051H213.051H213.051H213.05H213.05H213.05H213.049H213.049H213.049H213.048H213.048H213.048H213.047H213.047H213.047H213.046H213.046H213.046H213.045H213.045H213.045H213.044H213.044H213.044H213.043H213.043H213.042H213.042H213.042H213.041H213.041H213.041H213.04H213.04H213.04H213.039H213.039H213.039H213.038H213.038H213.038H213.037H213.037H213.037H213.036H213.036H213.036H213.035H213.035H213.035H213.034H213.034H213.034H213.033H213.033H213.033H213.032H213.032H213.031H213.031H213.031H213.03H213.03H213.03H213.029H213.029H213.029H213.028H213.028H213.028H213.027H213.027H213.027H213.026H213.026H213.026H213.025H213.025H213.025H213.024H213.024H213.024H213.023H213.023H213.023H213.022H213.022H213.022H213.021H213.021H213.021H213.02H213.02H213.019H213.019H213.019H213.018H213.018H213.018H213.017H213.017H213.017H213.016H213.016H213.016H213.015H213.015H213.015H213.014H213.014H213.014H213.013H213.013H213.013H213.012H213.012H213.012H213.011H213.011H213.011H213.01H213.01H213.01H213.009H213.009H213.009H213.008H213.008H213.007H213.007H213.007H213.006H213.006H213.006H213.005H213.005H213.005H213.004H213.004H213.004H213.003H213.003H213.003H213.002H213.002H213.002H213.001H213.001H213.001H213H213H213H212.999H212.999H212.999H212.998H212.998H212.998H212.997H212.997H212.997H212.996H212.996H212.995H212.995H212.995H212.994H212.994H212.994H212.993H212.993H212.993H212.992H212.992H212.992H212.991H212.991H212.991H212.99H212.99H212.99H212.989H212.989H212.989H212.988H212.988H212.988H212.987H212.987H212.987H212.986H212.986H212.986H212.985H212.985H212.984H212.984H212.984H212.983H212.983H212.983H212.982H212.982H212.982H212.981H212.981H212.981H212.98H212.98H212.98H212.979H212.979H212.979H212.978H212.978H212.978H212.977H212.977H212.977H212.976H212.976H212.976H212.975H212.975H212.975H212.974H212.974H212.974H212.973H212.973H212.972H212.972H212.972H212.971H212.971H212.971H212.97H212.97H212.97H212.969H212.969H212.969H212.968H212.968H212.968H212.967H212.967H212.967H212.966H212.966H212.966H212.965H212.965H212.965H212.964H212.964H212.964H212.963H212.963H212.963H212.962H212.962H212.962H212.961H212.961H212.96H212.96H212.96H212.959H212.959H212.959H212.958H212.958H212.958H212.957H212.957H212.957H212.956H212.956H212.956H212.955H212.955H212.955H212.954H212.954H212.954H212.953H212.953H212.953H212.952H212.952H212.952H212.951H212.951H212.951H212.95H212.95H212.95H212.949H212.949H212.948H212.948H212.948H212.947H212.947H212.947H212.946H212.946H212.946H212.945H212.945H212.945H212.944H212.944H212.944H212.943H212.943H212.943H212.942H212.942H212.942H212.941H212.941H212.941H212.94H212.94H212.94H212.939H212.939H212.939H212.938H212.938H212.938H212.937H212.937H212.936H212.936H212.936H212.935H212.935H212.935H212.934H212.934H212.934H212.933H212.933H212.933H212.932H212.932H212.932H212.931H212.931H212.931H212.93H212.93H212.93H212.929H212.929H212.929H212.928H212.928H212.928H212.927H212.927H212.927H212.926H212.926H212.925H212.925H212.925H212.924H212.924H212.924H212.923H212.923H212.923H212.922H212.922C97.6601 5.0853 5 90.7386 5 195.5C5 256.288 36.1975 310.642 84.9058 345.579C84.1805 347.115 83.5076 348.68 82.8893 350.273C32.4689 314.518 0 258.488 0 195.5C0 87.582 95.3105 0.0870361 212.918 0H213.094ZM221.55 391C214.832 424.092 185.575 449 150.5 449C110.459 449 78 416.541 78 376.5C78 367.251 79.732 358.406 82.8893 350.273C118.855 375.777 163.954 390.964 212.918 391H213.094H217.918H221.55ZM221.55 391C221.884 389.353 222.163 387.686 222.383 386H514V391H221.55ZM222.383 386H213.094H213.008L212.922 386C164.541 385.964 120.141 370.852 84.9058 345.579C96.5109 321.004 121.52 304 150.5 304C190.541 304 223 336.459 223 376.5C223 379.72 222.79 382.891 222.383 386Z" fill="#F5927B"/>
</svg>
