<?xml version="1.0" encoding="UTF-8" standalone="no"?>
<!-- Created with Inkscape (http://www.inkscape.org/) -->

<svg
   width="154.17128"
   height="198.76659"
   viewBox="0 0 40.791154 52.590329"
   version="1.1"
   id="svg5"
   xml:space="preserve"
   inkscape:version="1.2.2 (1:1.2.2+202212051550+b0a8486541)"
   sodipodi:docname="logo-dark.svg"
   inkscape:export-filename="logo-dark.png"
   inkscape:export-xdpi="96"
   inkscape:export-ydpi="96"
   xmlns:inkscape="http://www.inkscape.org/namespaces/inkscape"
   xmlns:sodipodi="http://sodipodi.sourceforge.net/DTD/sodipodi-0.dtd"
   xmlns:xlink="http://www.w3.org/1999/xlink"
   xmlns="http://www.w3.org/2000/svg"
   xmlns:svg="http://www.w3.org/2000/svg"><sodipodi:namedview
     id="namedview7"
     pagecolor="#ffffff"
     bordercolor="#000000"
     borderopacity="0.25"
     inkscape:showpageshadow="2"
     inkscape:pageopacity="0.0"
     inkscape:pagecheckerboard="0"
     inkscape:deskcolor="#d1d1d1"
     inkscape:document-units="px"
     showgrid="false"
     inkscape:zoom="0.41323289"
     inkscape:cx="-439.21964"
     inkscape:cy="-99.217659"
     inkscape:window-width="1600"
     inkscape:window-height="823"
     inkscape:window-x="0"
     inkscape:window-y="0"
     inkscape:window-maximized="1"
     inkscape:current-layer="svg5" /><defs
     id="defs2"><linearGradient
       inkscape:collect="always"
       id="linearGradient2040"><stop
         style="stop-color:#f5927b;stop-opacity:1;"
         offset="0"
         id="stop2036" /><stop
         style="stop-color:#f5927b;stop-opacity:0;"
         offset="1"
         id="stop2038" /></linearGradient><radialGradient
       inkscape:collect="always"
       xlink:href="#linearGradient2040"
       id="radialGradient2042"
       cx="50.732914"
       cy="62.349041"
       fx="50.732914"
       fy="62.349041"
       r="19.103041"
       gradientTransform="matrix(1,0,0,0.2697926,0,45.527732)"
       gradientUnits="userSpaceOnUse" /></defs><g
     inkscape:groupmode="layer"
     id="layer2"
     inkscape:label="logo"
     style="opacity:1;stroke:#f5927b;stroke-opacity:1"
     transform="translate(-222.17253,-13.392338)"><ellipse
       style="opacity:1;fill:none;fill-opacity:1;stroke:#b22200;stroke-width:2.11667;stroke-linecap:square;stroke-linejoin:round;stroke-dasharray:none;stroke-opacity:1;paint-order:markers fill stroke"
       id="ellipse3592"
       cx="242.44925"
       cy="31.71965"
       rx="3.6908383"
       ry="3.4345758" /><path
       style="opacity:1;fill:none;fill-opacity:1;stroke:#b22200;stroke-width:2.11667;stroke-linecap:butt;stroke-linejoin:round;stroke-dasharray:none;stroke-opacity:1;paint-order:markers fill stroke"
       d="m 245.69551,29.788299 c 1.08964,-0.78054 5.64664,-4.61717 11.21761,-5.18174 4.75315,-0.48169 6.63692,7.91416 3.31488,9.99919 -0.59413,2.07288 0.57609,6.54245 -6.49997,3.46255 -7.07606,-3.0799 -8.27874,-4.4011 -8.27874,-4.4011"
       id="path3594"
       sodipodi:nodetypes="csczc" /><path
       style="opacity:1;fill:none;fill-opacity:1;stroke:#b22200;stroke-width:2.11667;stroke-linecap:butt;stroke-linejoin:round;stroke-dasharray:none;stroke-opacity:1;paint-order:markers fill stroke"
       d="m 255.98815,39.073379 c 0.83804,4.33934 -0.0679,9.52753 -6.81201,8.83386 -1.70236,1.14677 -4.97593,2.45027 -5.87016,-2.38386 l -0.71452,-10.18223"
       id="path3596"
       sodipodi:nodetypes="cccc" /><path
       style="opacity:1;fill:none;fill-opacity:1;stroke:#b22200;stroke-width:2.11667;stroke-linecap:round;stroke-linejoin:round;stroke-dasharray:none;stroke-opacity:1;paint-order:markers fill stroke"
       d="m 242.80638,36.279459 c -0.39652,3.41066 0.28648,7.16882 -1.14961,10.27271 -0.1474,0.70662 -1.05729,1.86033 -1.8737,2.56695 -1.65874,0.12098 -2.41587,-0.68454 -4.07461,-1.02755 -7.69988,-0.49774 -6.29378,-4.1248 -7.13584,-6.8806"
       id="path3598"
       sodipodi:nodetypes="ccccc" /><path
       style="opacity:1;fill:none;fill-opacity:1;stroke:#b22200;stroke-width:2.11667;stroke-linecap:round;stroke-linejoin:round;stroke-dasharray:none;stroke-opacity:1;paint-order:markers fill stroke"
       d="m 238.98083,29.341739 c -3.09461,-1.71115 -6.03895,-3.52949 -9.85392,-4.72688 -5.54087,-1.88623 -7.76125,5.92016 -4.07031,9.59851 -1.11041,3.96255 1.94312,4.52568 3.91731,4.56797 3.50128,-0.89134 6.73852,-2.92546 10.008,-4.82006"
       id="path3600"
       sodipodi:nodetypes="ccccc" /><path
       style="opacity:1;fill:none;fill-opacity:1;stroke:#b22200;stroke-width:2.11667;stroke-linecap:round;stroke-linejoin:round;stroke-dasharray:none;stroke-opacity:1;paint-order:markers fill stroke"
       d="m 229.06117,23.793289 -0.13768,-3.61768 c 0.0823,-1.71275 0.72964,-3.08836 2.41402,-3.84517 l 4.88335,-1.49734 c 3.59203,-0.86739 4.23169,1.00964 5.42961,2.36773 0.94309,1.86626 0.83817,6.92524 1.08317,11.06627 0.23134,-4.36248 -0.23633,-11.9033 0.94328,-11.507 1.25031,-1.62003 2.57951,-3.054 4.99356,-1.9296 10.11108,1.02307 6.99772,8.3335 7.5894,9.06682"
       id="path3602"
       sodipodi:nodetypes="ccccccccc" /><text
       xml:space="preserve"
       style="font-size:14.1111px;font-family:Roboto;-inkscape-font-specification:Roboto;text-align:center;text-anchor:middle;opacity:1;fill:#b22200;fill-opacity:1;stroke:none;stroke-width:2.11667;stroke-linecap:round;stroke-linejoin:round;stroke-dasharray:none;stroke-opacity:1;paint-order:markers fill stroke"
       x="242.20859"
       y="65.844864"
       id="text3606"><tspan
         sodipodi:role="line"
         id="tspan3604"
         style="font-style:normal;font-variant:normal;font-weight:bold;font-stretch:normal;font-size:14.1111px;font-family:Roboto;-inkscape-font-specification:Roboto;fill:#b22200;fill-opacity:1;stroke:none;stroke-width:2.11667;stroke-opacity:1"
         x="242.20859"
         y="65.844864">SHERI</tspan></text></g></svg>
