<svg width="283" height="591" viewBox="0 0 283 591" fill="none" xmlns="http://www.w3.org/2000/svg">
<circle cx="210.5" cy="518.5" r="72.5" transform="rotate(-90 210.5 518.5)" fill="#F5927B"/>
<path fill-rule="evenodd" clip-rule="evenodd" d="M0 584.03C15.3576 588.255 31.4383 590.5 48 590.5C155.943 590.5 243.453 495.145 243.5 377.5V213.5C243.453 95.8546 155.943 0.5 48 0.5C31.4383 0.5 15.3576 2.74472 0 6.97028V12.1735C15.3471 7.81682 31.4347 5.5 48 5.5C152.786 5.5 238.454 98.2031 238.5 213.502V377.498C238.454 492.797 152.786 585.5 48 585.5C31.4347 585.5 15.3471 583.183 0 578.826V584.03Z" fill="#F5927B"/>
</svg>
