<svg width="1440" height="693" viewBox="0 0 1440 693" fill="none" xmlns="http://www.w3.org/2000/svg">
<g clip-path="url(#clip0_5_20)">
<rect width="1440" height="693" fill="white"/>
<path fill-rule="evenodd" clip-rule="evenodd" d="M1381 438.158C1381 544.285 1293.47 630.317 1185.5 630.317C1077.53 630.317 990 544.285 990 438.158C990 332.032 1077.53 246 1185.5 246C1293.47 246 1381 332.032 1381 438.158ZM566.704 562.937C538.977 489.963 467.412 438 383.5 438C351.111 438 320.562 445.742 293.663 459.445C271.723 376.908 195.348 316 104.5 316C-3.41795 316 -90.9129 401.947 -90.9999 508H-91V508.158V1033H188V1113H579V991H853V733.158C853 627.032 765.472 541 657.5 541C624.726 541 593.835 548.927 566.704 562.937Z" fill="#F5CBC1"/>
</g>
<defs>
<clipPath id="clip0_5_20">
<rect width="1440" height="693" fill="white"/>
</clipPath>
</defs>
</svg>
