<svg width="1440" height="693" viewBox="0 0 1440 693" fill="none" xmlns="http://www.w3.org/2000/svg">
<g clip-path="url(#clip0_5_20)">
<rect width="1440" height="693" fill="white"/>
<path fill-rule="evenodd" clip-rule="evenodd" d="M188 966H-91V441.158V441H-90.9999C-90.9129 334.947 -3.41795 249 104.5 249C195.348 249 271.723 309.908 293.663 392.445C320.562 378.742 351.111 371 383.5 371C467.412 371 538.977 422.963 566.704 495.937C593.835 481.927 624.726 474 657.5 474C765.472 474 853 560.032 853 666.158V924H579V1046H188V966ZM1228.5 592C1311.07 592 1378 525.067 1378 442.5C1378 359.933 1311.07 293 1228.5 293C1145.93 293 1079 359.933 1079 442.5C1079 525.067 1145.93 592 1228.5 592Z" fill="#F5CBC1"/>
</g>
<defs>
<clipPath id="clip0_5_20">
<rect width="1440" height="693" fill="white"/>
</clipPath>
</defs>
</svg>
