<svg width="1441" height="194" viewBox="0 0 1441 194" fill="none" xmlns="http://www.w3.org/2000/svg">
<path fill-rule="evenodd" clip-rule="evenodd" d="M312.203 61.7151C306.995 26.7894 276.876 0 240.5 0C200.459 0 168 32.4594 168 72.5C168 81.9077 169.792 90.8969 173.053 99.1449C110.68 122.289 52.5417 153.028 0 190.112V193.782C52.8111 156.276 111.349 125.22 174.212 101.907C185.491 127.295 210.928 145 240.5 145C280.541 145 313 112.541 313 72.5C313 69.8615 312.859 67.256 312.584 64.6905C356.785 57.0483 402.388 53.0345 449.013 53H449.015H449.016H449.017H449.019H449.02H449.021H449.022H449.023H449.024H449.026H449.027H449.028H449.029H449.03H449.032H449.033H449.034H449.035H449.036H449.038H449.039H449.04H449.041H449.042H449.043H449.045H449.046H449.047H449.048H449.049H449.051H449.052H449.053H449.054H449.055H449.057H449.058H449.059H449.06H449.061H449.062H449.064H449.065H449.066H449.067H449.068H449.07H449.071H449.072H449.073H449.074H449.076H449.077H449.078H449.079H449.08H449.081H449.083H449.084H449.085H449.086H449.087H449.089H449.09H449.091H449.092H449.093H449.094H449.096H449.097H449.098H449.099H449.1H449.102H449.103H449.104H449.105H449.106H449.107H449.109H449.11H449.111H449.112H449.113H449.115H449.116H449.117H449.118H449.119H449.121H449.122H449.123H449.124H449.125H449.126H449.128H449.129H449.13H449.131H449.132H449.134H449.135H449.136H449.137H449.138H449.14H449.141H449.142H449.143H449.144H449.145H449.147H449.148H449.149H449.15H449.151H449.153H449.154H449.155H449.156H449.157H449.159H449.16H449.161H449.162H449.163H449.164H449.166H449.167H449.168H449.169H449.17H449.172H449.173H449.174H449.175H449.176H449.177H449.179H449.18H449.181H449.182H449.183H449.185H449.186H449.187H449.188H449.189H449.191H449.192H449.193H449.194H449.195H449.196H449.198H449.199H449.2H449.201H449.202H449.204H449.205H449.206H449.207H449.208H449.21H449.211H449.212H449.213H449.214H449.215H449.217H449.218H449.219H449.22H449.221H449.223H449.224H449.225H449.226H449.227H449.229H449.23H449.231H449.232H449.233H449.234H449.236H449.237H449.238H449.239H449.24H449.242H449.243H449.244H449.245H449.246H449.247H449.249H449.25H449.251H449.252H449.253H449.255H449.256H449.257H449.258H449.259H449.261H449.262H449.263H449.264H449.265H449.266H449.268H449.269H449.27H449.271H449.272H449.274H449.275H449.276H449.277H449.278H449.28H449.281H449.282H449.283H449.284H449.285H449.287H449.288H449.289H449.29H449.291H449.293H449.294H449.295H449.296H449.297H449.299H449.3H449.301H449.302H449.303H449.304H449.306H449.307H449.308H449.309H449.31H449.312H449.313H449.314H449.315H449.316H449.317H449.319H449.32H449.321H449.322H449.323H449.325H449.326H449.327H449.328H449.329H449.331H449.332H449.333H449.334H449.335H449.336H449.338H449.339H449.34H449.341H449.342H449.344H449.345H449.346H449.347H449.348H449.349H449.351H449.352H449.353H449.354H449.355H449.357H449.358H449.359H449.36H449.361H449.363H449.364H449.365H449.366H449.367H449.368H449.37H449.371H449.372H449.373H449.374H449.376H449.377H449.378H449.379H449.38H449.382H449.383H449.384H449.385H449.386H449.387H449.389H449.39H449.391H449.392H449.393H449.395H449.396H449.397H449.398H449.399H449.401H449.402H449.403H449.404H449.405H449.406H449.408H449.409H449.41H449.411H449.412H449.414H449.415H449.416H449.417H449.418H449.419H449.421H449.422H449.423H449.424H449.425H449.427H449.428H449.429H449.43H449.431H449.433H449.434H449.435H449.436H449.437H449.438H449.44H449.441H449.442H449.443H449.444H449.446H449.447H449.448H449.449H449.45H449.452H449.453H449.454H449.455H449.456H449.457H449.459H449.46H449.461H449.462H449.463H449.465H449.466H449.467H449.468H449.469H449.471H449.472H449.473H449.474H449.475H449.476H449.478H449.479H449.48H449.481H449.482H449.484H449.485H449.486H449.487H449.488H449.49H449.491H449.492H449.493H449.494H449.495H449.497H449.498H449.499H449.5H449.501H449.503H449.504H449.505H449.506H449.507H449.508H449.51H449.511H449.512H449.513H449.514H449.516H449.517H449.518H449.519H449.52H449.522H449.523H449.524H449.525H449.526H449.527H449.529H449.53H449.531H449.532H449.533H449.535H449.536H449.537H449.538H449.539H449.541H449.542H449.543H449.544H449.545H449.546H449.548H449.549H449.55H449.551H449.552H449.554H449.555H449.556H449.557H449.558H449.56H449.561H449.562H449.563H449.564H449.565H449.567H449.568H449.569H449.57H449.571H449.573H449.574H449.575H449.576H449.577H449.578H449.58H449.581H449.582H449.583H449.584H449.586H449.587H449.588H449.589H449.59H449.592H449.593H449.594H449.595H449.596H449.597H449.599H449.6H449.601H449.602H449.603H449.605H449.606H449.607H449.608H449.609H449.611H449.612H449.613H449.614H449.615H449.616H449.618H449.619H1441V50H449.619H449.011C402.264 50.0345 356.534 54.0565 312.203 61.7151ZM312.203 61.7151C264.002 70.0424 217.454 82.6693 173.053 99.1449C173.421 100.075 173.807 100.996 174.212 101.907C218.364 85.5329 264.65 72.9781 312.584 64.6905C312.477 63.6925 312.35 62.7005 312.203 61.7151Z" fill="#FAF0ED"/>
</svg>
