<svg width="1410" height="556" viewBox="0 0 1410 556" fill="none" xmlns="http://www.w3.org/2000/svg">
<path fill-rule="evenodd" clip-rule="evenodd" d="M586.569 0H1410V5H586.569H586.568H586.567H586.566H586.565H586.564H586.563H586.562H586.561H586.56H586.559H586.559H586.558H586.557H586.556H586.555H586.554H586.553H586.552H586.551H586.55H586.549H586.548H586.547H586.546H586.545H586.544H586.543H586.542H586.542H586.541H586.54H586.539H586.538H586.537H586.536H586.535H586.534H586.533H586.532H586.531H586.53H586.529H586.528H586.527H586.526H586.526H586.525H586.524H586.523H586.522H586.521H586.52H586.519H586.518H586.517H586.516H586.515H586.514H586.513H586.512H586.511H586.51H586.51H586.509H586.508H586.507H586.506H586.505H586.504H586.503H586.502H586.501H586.5H586.499H586.498H586.497H586.496H586.495H586.494H586.493H586.492H586.492H586.491H586.49H586.489H586.488H586.487H586.486H586.485H586.484H586.483H586.482H586.481H586.48H586.479H586.478H586.477H586.477H586.476H586.475H586.474H586.473H586.472H586.471H586.47H586.469H586.468H586.467H586.466H586.465H586.464H586.463H586.462H586.461H586.46H586.46H586.459H586.458H586.457H586.456H586.455H586.454H586.453H586.452H586.451H586.45H586.449H586.448H586.447H586.446H586.445H586.444H586.443H586.443H586.442H586.441H586.44H586.439H586.438H586.437H586.436H586.435H586.434H586.433H586.432H586.431H586.43H586.429H586.428H586.427H586.427H586.426H586.425H586.424H586.423H586.422H586.421H586.42H586.419H586.418H586.417H586.416H586.415H586.414H586.413H586.412H586.411H586.41H586.41H586.409H586.408H586.407H586.406H586.405H586.404H586.403H586.402H586.401H586.4H586.399H586.398H586.397H586.396H586.395H586.394H586.393H586.393H586.392H586.391H586.39H586.389H586.388H586.387H586.386H586.385H586.384H586.383H586.382H586.381H586.38H586.379H586.378H586.377H586.377H586.376H586.375H586.374H586.373H586.372H586.371H586.37H586.369H586.368H586.367H586.366H586.365H586.364H586.363H586.362H586.361H586.36H586.36H586.359H586.358H586.357H586.356H586.355H586.354H586.353H586.352H586.351H586.35H586.349H586.348H586.347H586.346H586.345H586.344H586.344H586.343H586.342H586.341H586.34H586.339H586.338H586.337H586.336H586.335H586.334H586.333H586.332H586.331H586.33H586.329H586.328H586.328H586.327H586.326H586.325H586.324H586.323H586.322H586.321H586.32H586.319H586.318H586.317H586.316H586.315H586.314H586.313H586.312H586.311H586.311H586.31H586.309H586.308H586.307H586.306H586.305H586.304H586.303H586.302H586.301H586.3H586.299H586.298H586.297H586.296H586.295H586.294H586.294H586.293H586.292H586.291H586.29H586.289H586.288H586.287H586.286H586.285H586.284H586.283H586.282H586.281H586.28H586.279H586.278H586.278H586.277H586.276H586.275H586.274H586.273H586.272H586.271H586.27H586.269H586.268H586.267H586.266H586.265H586.264H586.263H586.262H586.261H586.261H586.26H586.259H586.258H586.257H586.256H586.255H586.254H586.253H586.252H586.251H586.25H586.249H586.248H586.247H586.246H586.245H586.245H586.244H586.243H586.242H586.241H586.24H586.239H586.238H586.237H586.236H586.235H586.234H586.233H586.232H586.231H586.23H586.229H586.228H586.228H586.227H586.226H586.225H586.224H586.223H586.222H586.221H586.22H586.219H586.218H586.217H586.216H586.215H586.214H586.213H586.212H586.211H586.211H586.21H586.209H586.208H586.207H586.206H586.205H586.204H586.203H586.202H586.201H586.2H586.199H586.198H586.197H586.196H586.195H586.195H586.194H586.193H586.192H586.191H586.19H586.189H586.188H586.187H586.186H586.185H586.184H586.183H586.182H586.181H586.18H586.179H586.179H586.178H586.177H586.176H586.175H586.174H586.173H586.172H586.171H586.17H586.169H586.168H586.167H586.166H586.165H586.164H586.163H586.162H586.162H586.161H586.16H586.159H586.158H586.157H586.156H586.155H586.154H586.153H586.152H586.151H586.15H586.149H586.148H586.147H586.146H586.146H586.145H586.144H586.143H586.142H586.141H586.14H586.139H586.138H586.137H586.136H586.135H586.134H586.133H586.132H586.131H586.13H586.13H586.129H586.128H586.127H586.126H586.125H586.124H586.123H586.122H586.121H586.12H586.119H586.118H586.117H586.116H586.115H586.114H586.113H586.112H586.112H586.111H586.11H586.109H586.108H586.107H586.106H586.105H586.104H586.103H586.102H586.101H586.1H586.099H586.098H586.097H586.096H586.096H586.095H586.094H586.093H586.092H586.091H586.089C265.044 5.24535 5.28481 252.04 5.00023 556H0.000231693C0.284727 249.036 262.531 0.247302 586.086 0H586.569Z" fill="#F5927B"/>
</svg>
